<?xml version="1.0" standalone="no"?>
<!DOCTYPE svg PUBLIC "-//W3C//DTD SVG 20010904//EN"
 "http://www.w3.org/TR/2001/REC-SVG-20010904/DTD/svg10.dtd">
<svg version="1.0" xmlns="http://www.w3.org/2000/svg"
 width="1024.000000pt" height="1024.000000pt" viewBox="0 0 1024.000000 1024.000000"
 preserveAspectRatio="xMidYMid meet">
<metadata>
Created by potrace 1.14, written by Peter Selinger 2001-2017
</metadata>
<g transform="translate(0.000000,1024.000000) scale(0.100000,-0.100000)"
fill="#000000" stroke="none">
<path d="M4148 9605 c-2 -3 -27 -7 -54 -9 -27 -3 -62 -8 -79 -12 -16 -3 -36
-7 -42 -7 -7 0 -13 -4 -13 -9 0 -4 -9 -8 -21 -8 -11 0 -33 -9 -49 -20 -15 -11
-29 -17 -32 -14 -3 2 -11 -2 -18 -11 -7 -8 -18 -15 -24 -15 -7 0 -44 -29 -83
-65 -74 -67 -140 -160 -164 -230 -7 -22 -16 -44 -20 -50 -4 -5 -10 -30 -14
-55 -4 -25 -9 -54 -11 -65 -5 -23 -13 -69 -19 -105 -22 -129 -38 -229 -40
-250 -2 -14 -4 -25 -5 -25 -1 0 -3 -11 -5 -25 -1 -14 -6 -41 -10 -60 -3 -19
-8 -48 -10 -65 -2 -16 -6 -39 -8 -50 -2 -11 -8 -42 -12 -70 -12 -81 -14 -89
-19 -114 -3 -14 -8 -47 -11 -74 -3 -28 -8 -53 -10 -57 -2 -3 -6 -24 -9 -46 -3
-21 -8 -50 -11 -64 -2 -14 -7 -45 -10 -69 -3 -25 -8 -54 -10 -65 -3 -12 -7
-32 -9 -46 -2 -14 -8 -43 -12 -65 -10 -49 -11 -55 -12 -81 -2 -22 -47 -40 -58
-23 -3 5 -14 5 -24 -1 -13 -7 -21 -7 -25 0 -4 6 -13 7 -24 1 -10 -6 -23 -6
-31 -1 -8 5 -21 5 -31 -1 -12 -6 -20 -5 -24 1 -4 6 -11 7 -18 3 -16 -9 -58
-10 -63 -1 -3 5 -14 4 -24 -2 -13 -7 -21 -7 -25 0 -4 6 -13 7 -24 1 -10 -6
-23 -6 -31 -1 -8 5 -21 5 -31 -1 -12 -6 -20 -5 -24 1 -4 6 -11 7 -18 3 -15 -9
-57 -10 -57 -1 0 4 -11 3 -25 -2 -16 -6 -25 -6 -25 0 0 6 -9 6 -25 0 -15 -6
-25 -6 -25 0 0 5 -12 5 -30 0 -18 -5 -30 -5 -30 0 0 6 -10 6 -24 0 -13 -5 -26
-7 -28 -4 -7 6 -98 11 -98 4 0 -3 -11 -5 -25 -5 -14 0 -25 4 -25 8 0 4 -9 3
-19 -3 -13 -7 -22 -7 -26 0 -4 6 -12 7 -23 1 -9 -5 -26 -5 -39 0 -14 5 -23 5
-23 -1 0 -6 -9 -6 -25 0 -15 6 -26 6 -30 0 -4 -7 -13 -6 -26 0 -10 6 -19 7
-19 3 0 -4 -11 -8 -25 -8 -14 0 -25 3 -25 7 0 4 -11 3 -24 -2 -13 -5 -26 -7
-28 -4 -8 8 -99 10 -104 2 -3 -4 -16 -3 -29 2 -14 5 -25 6 -25 2 0 -4 -19 -7
-42 -6 -55 1 -155 -21 -193 -43 -16 -9 -30 -15 -30 -13 0 13 -120 -66 -169
-111 -47 -43 -140 -167 -141 -188 -1 -3 -9 -21 -18 -38 -10 -18 -15 -33 -11
-33 4 0 1 -6 -5 -14 -6 -8 -11 -18 -10 -22 1 -5 0 -11 -1 -14 -24 -62 -20
-277 7 -340 3 -8 6 -18 5 -22 -1 -4 17 -44 39 -88 29 -58 62 -103 113 -154 63
-63 176 -147 176 -129 0 3 9 -2 21 -13 12 -10 22 -17 23 -15 0 2 21 -3 46 -10
64 -18 70 -19 123 -23 26 -2 50 -6 53 -9 3 -3 17 -2 30 3 14 6 26 6 29 0 3 -6
15 -6 30 0 15 6 27 6 30 0 3 -6 15 -6 30 0 15 6 27 6 30 0 3 -6 15 -6 30 0 15
6 27 6 30 0 3 -6 15 -6 30 0 15 6 27 6 30 0 3 -6 15 -6 30 0 15 6 27 6 30 0 3
-6 15 -6 30 0 15 6 27 6 30 0 3 -6 15 -6 30 0 15 6 27 6 30 0 3 -6 15 -6 30 0
15 6 27 6 30 0 3 -6 15 -6 30 0 13 5 27 6 29 1 3 -4 26 -5 50 -1 25 4 51 3 58
-1 6 -4 19 -4 28 1 9 5 22 5 30 0 8 -5 21 -5 31 0 9 5 19 7 22 4 7 -7 175 -9
183 -1 3 3 17 2 30 -3 14 -6 26 -6 29 0 3 6 15 6 29 0 13 -5 27 -5 32 0 5 4
20 4 33 -1 20 -8 22 -14 17 -42 -3 -17 -8 -50 -11 -72 -6 -35 -12 -77 -19
-110 -1 -5 -5 -16 -9 -22 -5 -7 -4 -13 2 -13 7 0 7 -8 2 -23 -11 -28 -33 -161
-35 -204 0 -18 -5 -33 -9 -33 -5 0 -7 -8 -6 -17 2 -10 0 -31 -4 -48 -4 -16 -9
-46 -12 -65 -5 -38 -13 -75 -15 -75 -1 0 -3 -18 -5 -40 -2 -22 -5 -51 -8 -65
-2 -14 -7 -41 -11 -60 -3 -19 -8 -48 -11 -65 -7 -37 -11 -57 -19 -115 -4 -25
-9 -57 -12 -72 -2 -16 -6 -43 -9 -60 -3 -18 -8 -46 -12 -63 -3 -16 -7 -41 -8
-55 -1 -14 -5 -36 -9 -50 -3 -14 -8 -41 -11 -60 -2 -19 -6 -46 -9 -60 -3 -13
-8 -42 -11 -65 -10 -64 -16 -106 -21 -128 -8 -46 -17 -103 -18 -119 0 -10 -3
-18 -6 -18 -3 0 -6 -15 -7 -32 0 -18 -3 -42 -6 -54 -3 -12 -8 -45 -12 -75 -4
-30 -8 -56 -10 -59 -2 -3 -6 -26 -10 -50 -10 -75 -24 -158 -39 -235 -2 -11 -7
-45 -11 -75 -4 -30 -9 -64 -12 -75 -4 -17 -8 -43 -12 -79 -1 -4 -8 -6 -16 -3
-8 4 -17 2 -20 -3 -3 -5 -15 -6 -28 -1 -12 5 -34 5 -48 1 -15 -4 -32 -4 -40 0
-7 5 -20 5 -29 0 -9 -5 -22 -5 -30 0 -8 5 -21 5 -31 0 -9 -5 -19 -7 -22 -3 -8
7 -1129 6 -1188 -2 -79 -10 -144 -27 -179 -46 -8 -4 -39 -20 -69 -35 -30 -15
-87 -60 -130 -103 -96 -96 -148 -190 -179 -326 -9 -38 -7 -221 3 -260 4 -16 8
-37 10 -45 2 -8 4 -16 5 -17 2 -2 3 -6 4 -10 1 -5 10 -25 19 -47 9 -21 17 -40
17 -42 0 -2 18 -30 40 -62 34 -49 99 -116 157 -162 22 -18 113 -70 113 -65 0
3 17 -3 37 -14 21 -10 41 -19 46 -20 4 -1 8 -1 10 -2 8 -2 68 -10 105 -13 24
-3 46 -7 49 -10 3 -3 14 -1 24 4 12 7 20 7 24 0 4 -6 13 -7 24 -1 9 5 23 6 31
1 7 -4 24 -4 37 1 13 5 22 6 20 1 -3 -4 8 -7 23 -7 15 0 26 3 23 7 -2 5 6 4
19 -1 14 -5 31 -5 40 0 11 6 19 5 23 -1 4 -6 13 -7 23 -1 9 5 26 5 37 1 11 -4
28 -4 37 1 10 6 19 5 23 -1 4 -7 13 -7 26 0 10 6 19 7 19 3 0 -4 14 -8 30 -8
17 0 30 4 30 8 0 4 9 3 19 -3 13 -6 22 -7 26 0 3 5 15 6 28 1 13 -5 30 -5 39
0 11 6 19 5 23 -1 4 -7 13 -7 26 0 10 6 19 7 19 3 0 -4 14 -8 30 -8 17 0 30 4
30 8 0 4 9 3 19 -3 13 -6 22 -7 26 0 3 5 15 6 28 1 13 -5 30 -5 39 0 11 6 19
5 23 -1 4 -7 13 -7 26 0 10 6 19 7 19 3 0 -10 63 -8 79 2 6 3 11 2 11 -4 0 -7
8 -7 25 -1 15 6 27 6 30 0 3 -6 15 -6 30 0 14 5 25 6 25 1 0 -5 8 -7 19 -4 10
3 22 0 25 -6 4 -6 3 -11 -1 -11 -5 0 -9 -10 -10 -22 0 -13 -3 -43 -8 -68 -9
-58 -12 -74 -20 -134 -3 -28 -8 -53 -10 -56 -2 -3 -6 -28 -10 -56 -3 -27 -7
-56 -10 -64 -2 -8 -7 -35 -11 -60 -3 -25 -7 -54 -9 -65 -2 -11 -6 -33 -9 -50
-5 -37 -15 -91 -21 -125 -9 -46 -17 -95 -21 -120 -12 -80 -15 -108 -18 -131
-2 -14 -6 -31 -10 -37 -4 -7 -5 -12 -3 -12 3 0 -2 -33 -10 -73 -51 -259 3
-471 160 -630 39 -41 90 -85 112 -98 39 -24 95 -51 105 -51 3 0 10 -3 15 -8
13 -10 77 -27 140 -35 46 -7 148 -9 160 -5 8 4 17 6 67 14 26 4 50 11 53 17 4
5 10 7 15 4 23 -14 204 104 259 169 14 15 30 33 36 40 25 26 94 154 101 186 0
3 3 12 7 20 6 15 32 147 41 210 7 48 35 221 40 245 2 11 7 40 11 65 4 25 9 56
12 70 2 14 6 39 8 55 2 17 6 41 9 55 8 46 46 264 51 305 4 22 8 51 11 65 3 14
7 39 9 55 8 57 12 81 35 212 l23 133 54 -3 c29 -2 53 0 53 5 0 5 5 6 12 2 17
-11 108 -11 108 -1 0 5 5 5 12 1 17 -11 108 -11 108 -1 0 5 5 5 12 1 17 -11
108 -11 108 -1 0 5 5 5 12 1 17 -11 108 -11 108 -1 0 5 5 5 12 1 17 -11 108
-11 108 -1 0 5 5 5 12 1 17 -11 108 -11 108 -1 0 5 5 5 12 1 17 -11 108 -11
108 -1 0 5 5 5 12 1 17 -11 108 -11 108 -1 0 5 5 5 12 1 17 -11 108 -11 108
-1 0 5 6 5 12 1 17 -11 288 -11 288 -1 0 5 5 5 12 1 17 -11 148 -11 148 0 0 5
5 5 13 0 6 -5 39 -8 72 -7 125 5 171 1 167 -15 -1 -7 -5 -29 -7 -50 -3 -20 -8
-48 -10 -62 -3 -14 -8 -42 -11 -64 -3 -21 -8 -48 -10 -60 -3 -11 -7 -36 -10
-55 -2 -19 -7 -48 -10 -65 -7 -38 -22 -128 -29 -176 -3 -19 -7 -44 -10 -56 -2
-12 -7 -39 -10 -60 -4 -21 -8 -50 -11 -64 -5 -25 -8 -44 -19 -123 -4 -23 -10
-60 -15 -82 -5 -22 -11 -60 -14 -85 -3 -25 -12 -78 -20 -118 -8 -41 -12 -114
-11 -170 6 -166 65 -302 185 -422 59 -59 170 -140 170 -123 0 3 9 -2 21 -13
12 -10 23 -18 25 -16 3 2 28 -4 57 -12 43 -13 130 -26 182 -28 25 -1 150 17
150 22 0 1 13 4 29 6 40 7 142 59 204 106 58 43 153 153 176 204 9 19 23 49
31 67 16 36 41 138 50 207 6 46 7 53 21 125 4 22 8 55 8 72 1 18 4 33 8 33 4
0 7 10 7 23 -1 12 4 49 10 82 6 33 14 76 16 95 3 19 8 44 10 56 3 12 7 39 10
60 4 21 8 50 11 64 3 14 7 39 9 55 2 17 6 41 9 55 5 22 16 85 20 120 7 50 22
141 30 180 3 14 8 45 11 69 3 24 7 46 9 50 2 3 7 33 10 66 9 80 16 106 27 99
5 -2 18 0 29 6 11 6 20 7 20 2 0 -8 69 -7 77 2 3 3 16 1 29 -4 14 -6 26 -6 29
1 4 5 12 6 18 2 6 -4 21 -7 32 -7 11 0 26 3 32 7 6 4 14 3 18 -2 3 -6 15 -7
28 -2 12 5 31 5 42 1 11 -4 25 -3 32 2 7 5 14 5 17 -1 4 -6 15 -7 29 -2 12 5
32 5 44 0 13 -5 25 -4 28 2 4 5 12 6 18 2 15 -9 49 -9 64 0 6 4 14 3 18 -2 3
-6 15 -7 28 -2 12 5 32 5 44 0 12 -4 25 -4 27 0 3 5 24 5 46 1 22 -4 40 -3 40
2 0 5 8 4 18 -1 13 -7 22 -7 29 0 7 7 13 7 17 1 4 -7 17 -7 36 -2 18 5 30 5
30 0 0 -6 10 -6 25 0 14 5 25 6 25 2 0 -9 41 -8 56 1 5 3 16 2 24 -3 9 -5 19
-5 26 1 8 6 14 7 18 0 4 -6 18 -6 36 -1 18 5 30 5 30 0 0 -6 10 -6 25 0 14 5
25 6 25 2 0 -9 47 -8 56 1 4 3 15 2 25 -3 12 -7 20 -7 24 0 5 8 11 8 19 1 7
-6 15 -8 19 -5 3 3 34 7 69 9 80 5 154 22 198 46 8 4 39 20 69 35 77 38 198
163 243 249 57 111 72 173 72 300 0 93 -5 134 -24 197 -6 21 -10 40 -8 42 2 2
-6 13 -16 25 -11 12 -16 21 -13 21 18 0 -66 113 -129 176 -106 105 -240 168
-385 180 -29 2 -55 6 -57 9 -2 2 -15 0 -28 -5 -13 -5 -26 -6 -29 0 -3 5 -18 5
-35 0 -16 -5 -32 -5 -35 0 -3 4 -21 4 -40 0 -19 -4 -35 -4 -35 0 0 5 -13 5
-30 0 -17 -5 -30 -5 -30 0 0 5 -13 5 -30 0 -18 -5 -30 -5 -30 0 0 6 -10 6 -25
0 -14 -5 -27 -5 -30 0 -3 5 -18 5 -35 0 -16 -5 -32 -5 -35 0 -3 4 -21 4 -40 0
-19 -4 -35 -4 -35 0 0 5 -13 5 -30 0 -19 -5 -30 -5 -30 1 0 6 -4 7 -10 4 -13
-8 -108 -11 -116 -3 -3 4 -17 3 -30 -2 -14 -6 -26 -6 -29 0 -3 6 -15 6 -30 0
-15 -6 -27 -6 -30 0 -3 6 -15 6 -30 0 -15 -6 -27 -6 -30 0 -3 6 -15 6 -30 0
-15 -6 -27 -6 -30 0 -3 6 -15 6 -30 0 -15 -6 -25 -6 -25 0 0 5 -12 5 -30 0
-17 -5 -30 -5 -30 0 0 5 -13 5 -30 0 -17 -5 -32 -5 -35 0 -3 5 -13 6 -22 3
-14 -6 -15 0 -9 43 4 27 9 59 12 71 7 37 11 66 18 113 3 25 8 56 11 70 3 14 7
39 10 55 3 17 7 44 10 60 3 17 8 44 10 60 3 17 7 46 11 65 3 19 7 45 7 58 1
12 4 22 7 22 3 0 6 10 6 23 1 21 9 79 17 122 3 11 8 43 12 70 5 28 9 52 10 55
1 6 17 107 21 135 1 11 3 20 4 20 1 0 3 14 5 30 2 17 7 46 10 65 4 19 9 46 11
60 2 14 5 35 8 47 2 11 8 43 12 70 3 26 8 57 11 68 2 11 6 34 8 50 4 28 7 47
21 131 3 20 8 46 10 58 2 11 7 36 9 54 3 17 8 49 11 70 4 20 8 46 9 57 1 11 5
36 10 55 4 19 9 46 11 60 1 14 5 34 7 45 3 11 8 43 11 70 4 28 9 57 11 65 3 8
7 31 9 50 3 19 8 46 11 60 2 14 7 43 10 65 3 22 7 51 10 65 3 14 7 39 10 55
11 78 27 160 30 163 4 5 33 4 75 -1 14 -2 35 0 47 5 12 4 25 3 28 -2 3 -5 18
-5 35 0 16 5 32 5 35 0 3 -4 21 -4 40 0 19 4 35 4 35 0 0 -5 14 -5 30 0 17 5
30 5 30 0 0 -5 13 -5 30 0 18 5 30 5 30 0 0 -6 10 -6 25 0 14 5 27 5 30 0 3
-5 18 -5 35 0 16 5 32 5 35 0 3 -4 21 -4 40 0 19 4 35 4 35 0 0 -5 14 -5 30 0
17 5 30 5 30 0 0 -5 13 -5 30 0 18 5 30 5 30 0 0 -6 10 -6 25 0 14 5 27 5 30
0 3 -5 18 -5 35 0 16 5 32 5 35 0 3 -4 21 -4 40 0 19 4 35 4 35 0 0 -5 14 -5
30 0 17 5 30 5 30 0 0 -5 13 -5 30 0 18 5 30 5 30 0 0 -6 10 -6 25 0 14 5 27
5 30 0 3 -5 18 -5 35 0 16 5 32 5 35 0 3 -4 21 -4 40 0 19 4 35 4 35 0 0 -5
14 -5 30 0 19 5 30 5 30 -1 0 -6 4 -8 10 -4 5 3 44 8 87 10 82 4 82 4 153 24
134 38 306 175 364 292 15 30 31 61 36 69 26 47 44 142 44 235 0 82 -8 180
-14 180 -1 0 -3 8 -5 17 -6 32 -85 188 -95 188 -6 0 -10 6 -10 14 0 32 -216
206 -234 189 -3 -4 -6 0 -6 7 0 7 -3 10 -7 7 -3 -4 -17 0 -29 8 -12 8 -35 17
-51 20 -15 2 -39 8 -53 11 -14 3 -46 7 -72 8 -27 0 -48 5 -48 9 0 4 -8 3 -18
-2 -11 -6 -24 -6 -34 0 -11 6 -19 6 -23 -1 -4 -7 -12 -7 -24 0 -10 5 -21 6
-25 3 -8 -8 -70 -8 -84 0 -6 4 -13 3 -17 -3 -4 -7 -12 -7 -26 0 -13 8 -19 7
-19 0 0 -6 -5 -8 -11 -4 -14 8 -134 8 -148 -1 -6 -3 -11 -1 -11 5 0 7 -6 8
-18 1 -13 -7 -22 -7 -29 0 -8 8 -13 7 -17 0 -5 -8 -13 -8 -26 -1 -12 6 -21 7
-25 0 -4 -6 -15 -6 -30 0 -14 5 -25 6 -25 2 0 -9 -63 -8 -78 2 -6 3 -13 2 -17
-4 -4 -7 -12 -7 -26 0 -13 8 -19 7 -19 0 0 -6 -5 -8 -11 -4 -14 8 -134 8 -148
-1 -6 -3 -11 -1 -11 5 0 7 -6 8 -18 1 -13 -7 -22 -7 -29 0 -8 8 -13 7 -17 0
-5 -8 -13 -8 -26 -1 -12 6 -21 7 -25 0 -4 -6 -15 -6 -30 0 -14 5 -25 6 -25 2
0 -12 -59 -6 -75 8 -11 9 -12 17 -4 31 5 10 8 19 5 19 -2 0 0 15 4 33 5 17 12
52 15 77 4 37 19 126 39 245 7 35 15 89 21 125 10 61 13 84 20 120 4 19 8 48
10 63 2 16 6 40 9 55 10 48 16 86 22 128 2 23 7 53 10 65 2 13 7 40 10 59 9
59 13 83 22 132 12 63 8 212 -7 268 -17 63 -72 190 -82 190 -5 0 -9 6 -9 13 0
6 -18 32 -40 57 -22 24 -40 49 -40 54 0 5 -3 7 -6 3 -3 -3 -22 10 -42 29 -32
30 -160 102 -196 111 -6 1 -38 9 -71 17 -85 22 -315 11 -331 -15 -3 -5 -12 -9
-21 -9 -40 0 -215 -113 -251 -162 -7 -9 -18 -23 -25 -30 -20 -20 -71 -100 -86
-133 -34 -76 -54 -155 -67 -260 -1 -11 -3 -20 -4 -20 -1 0 -3 -9 -4 -20 -5
-34 -28 -179 -32 -200 -7 -38 -34 -193 -40 -235 -15 -96 -28 -178 -39 -230 -3
-14 -8 -45 -11 -70 -3 -25 -8 -54 -11 -65 -2 -11 -6 -39 -8 -63 -2 -23 -6 -46
-9 -50 -4 -7 -14 -62 -21 -117 -1 -11 -5 -33 -8 -50 -6 -30 -16 -91 -21 -131
-2 -11 -6 -26 -9 -31 -9 -14 -47 -24 -47 -12 0 5 -10 5 -24 -1 -15 -5 -27 -5
-34 2 -6 6 -12 6 -16 -1 -5 -8 -13 -8 -27 -1 -12 7 -19 7 -19 1 0 -7 -8 -7
-22 -2 -13 5 -32 5 -43 1 -11 -4 -25 -3 -32 2 -7 5 -14 5 -18 -2 -4 -7 -12 -7
-26 0 -12 7 -19 7 -19 1 0 -7 -8 -7 -22 -2 -13 5 -32 5 -43 1 -11 -4 -25 -3
-32 2 -7 5 -14 5 -18 -2 -4 -7 -12 -7 -26 0 -12 7 -19 7 -19 1 0 -7 -8 -7 -22
-2 -13 5 -32 5 -43 1 -11 -4 -25 -3 -32 2 -7 5 -14 5 -18 -2 -4 -7 -12 -7 -26
0 -12 7 -19 7 -19 1 0 -7 -8 -7 -22 -2 -13 5 -32 5 -43 1 -11 -4 -25 -3 -32 2
-7 5 -14 5 -18 -2 -4 -7 -12 -7 -26 0 -12 7 -19 7 -19 1 0 -7 -8 -7 -22 -2
-13 5 -32 5 -43 1 -11 -4 -25 -3 -32 2 -7 5 -14 5 -18 -2 -4 -7 -12 -7 -26 0
-12 7 -19 7 -19 1 0 -7 -8 -7 -22 -2 -13 5 -32 5 -43 1 -11 -4 -25 -3 -32 2
-7 5 -14 5 -18 -2 -4 -7 -12 -7 -26 0 -12 7 -19 7 -19 1 0 -7 -8 -7 -22 -2
-13 5 -32 5 -43 1 -11 -4 -25 -3 -32 2 -7 5 -14 5 -18 -2 -4 -7 -12 -7 -26 0
-12 7 -19 7 -19 1 0 -7 -8 -7 -24 -1 -13 5 -26 7 -29 4 -8 -8 -88 -10 -93 -2
-3 4 -16 3 -29 -2 -17 -6 -25 -6 -25 1 0 6 -5 7 -11 4 -16 -10 -69 -12 -75 -3
-3 4 -14 4 -24 -2 -13 -7 -21 -7 -25 0 -4 6 -13 7 -24 1 -9 -5 -23 -6 -31 -1
-7 4 -24 4 -37 -1 -14 -5 -23 -5 -23 1 0 6 -9 6 -23 1 -14 -5 -30 -5 -40 0
-11 7 -17 6 -17 0 0 -7 -8 -7 -26 -1 -14 6 -23 6 -20 1 3 -4 -6 -6 -19 -3 -15
2 -22 9 -18 15 4 6 7 20 8 31 3 30 19 134 30 186 3 14 8 45 11 70 7 56 12 85
14 85 2 0 8 42 15 95 2 19 4 35 5 35 2 0 4 14 26 140 15 85 21 125 28 185 2
14 6 36 9 50 4 14 9 41 12 60 2 19 7 49 10 65 6 31 19 111 30 180 16 95 -1
224 -40 319 -8 20 -14 37 -13 38 6 8 -80 129 -121 171 -51 53 -168 136 -202
142 -11 2 -26 8 -33 13 -18 15 -72 27 -170 38 -28 3 -53 7 -57 9 -3 3 -8 2
-11 0z m288 -3205 c14 6 26 6 29 0 3 -6 15 -6 30 0 15 6 27 6 30 0 3 -6 15 -6
30 0 15 6 27 6 30 0 3 -6 15 -6 30 0 15 6 27 6 30 0 3 -6 15 -6 30 0 15 6 27
6 30 0 3 -6 15 -6 30 0 15 6 27 6 30 0 3 -6 15 -6 30 0 15 6 27 6 30 0 3 -6
15 -6 30 0 15 6 27 6 30 0 3 -6 15 -6 30 0 15 6 27 6 30 0 3 -6 15 -6 30 0 15
6 27 6 30 0 3 -6 15 -6 30 0 13 5 26 6 29 2 3 -5 30 -5 61 -2 31 3 58 3 61 -2
3 -4 16 -3 29 2 15 6 27 6 30 0 3 -6 15 -6 30 0 15 6 27 6 30 0 3 -6 15 -6 30
0 15 6 27 6 30 0 3 -6 15 -6 30 0 15 6 27 6 30 0 3 -6 15 -6 30 0 15 6 27 6
30 0 3 -6 15 -6 30 0 15 6 27 6 30 0 3 -6 15 -6 30 0 15 6 27 6 30 0 3 -6 15
-6 30 0 15 6 27 6 30 0 3 -6 15 -6 30 0 15 6 27 6 30 0 3 -6 15 -6 30 0 15 6
27 6 30 0 3 -6 15 -6 30 0 15 6 27 6 30 0 3 -6 15 -6 30 0 15 6 27 6 30 0 3
-6 15 -6 30 0 15 6 27 6 30 0 3 -6 15 -6 30 0 15 6 27 6 30 0 3 -6 15 -6 30 0
15 6 27 6 30 0 3 -6 15 -6 30 0 15 6 27 6 30 0 3 -6 15 -6 29 0 13 5 27 6 30
3 4 -4 24 -6 46 -6 22 0 38 -3 35 -7 -2 -3 -7 -21 -10 -38 -3 -18 -7 -45 -10
-60 -3 -16 -7 -44 -9 -63 -3 -19 -8 -45 -11 -59 -3 -14 -8 -45 -11 -70 -7 -56
-12 -85 -14 -85 -1 0 -6 -27 -15 -90 -2 -16 -6 -41 -10 -55 -3 -14 -8 -45 -11
-70 -3 -25 -7 -52 -9 -60 -3 -8 -7 -33 -10 -55 -3 -22 -8 -49 -10 -61 -3 -12
-7 -39 -11 -60 -3 -21 -8 -48 -9 -59 -2 -11 -6 -38 -10 -60 -3 -22 -10 -62
-15 -90 -12 -60 -18 -96 -24 -150 -3 -22 -8 -50 -10 -61 -8 -40 -18 -99 -21
-132 -2 -18 -6 -41 -9 -50 -3 -9 -8 -37 -11 -61 -3 -24 -7 -47 -9 -50 -2 -3
-7 -30 -11 -60 -4 -30 -9 -63 -11 -75 -9 -44 -14 -75 -19 -112 -3 -22 -7 -50
-10 -64 -2 -14 -7 -36 -10 -50 -2 -14 -7 -45 -10 -70 -3 -25 -8 -52 -11 -61
-3 -10 -6 -30 -8 -45 -5 -38 -15 -105 -20 -129 -2 -11 -7 -40 -11 -65 -9 -56
-13 -78 -20 -110 -3 -14 -8 -43 -10 -65 -3 -22 -7 -49 -9 -60 -3 -11 -5 -26
-5 -34 -1 -7 -7 -11 -14 -8 -8 3 -20 1 -27 -3 -8 -5 -21 -5 -30 0 -9 5 -22 5
-30 0 -8 -5 -21 -5 -30 0 -9 5 -22 5 -29 0 -8 -4 -27 -4 -42 0 -16 5 -29 5
-29 0 0 -5 -13 -5 -30 0 -16 5 -30 6 -30 2 0 -8 -274 -6 -295 2 -8 3 -17 1
-20 -4 -3 -6 -15 -6 -30 0 -15 6 -27 6 -30 0 -3 -5 -15 -6 -27 -1 -12 4 -36 5
-54 1 -18 -4 -38 -4 -45 1 -7 4 -20 4 -29 -1 -9 -5 -22 -5 -30 0 -8 5 -18 6
-23 3 -7 -4 -876 -7 -1005 -4 -21 1 -22 4 -17 52 3 28 7 55 10 58 2 4 6 29 9
56 7 57 12 88 27 163 6 30 8 56 5 59 -3 4 -2 11 3 17 5 6 12 34 15 61 4 28 9
61 11 75 3 14 8 41 11 60 6 44 10 66 19 110 4 19 9 49 11 65 2 17 5 41 8 55 2
14 7 45 11 70 13 79 14 84 20 115 8 41 13 71 20 119 7 49 13 79 15 86 1 3 2 8
1 12 0 4 4 31 10 60 5 29 12 71 15 93 3 22 9 63 15 91 17 86 20 108 24 144 2
19 4 35 5 35 4 0 21 108 23 148 1 9 4 17 7 17 3 0 5 10 6 23 1 27 14 116 19
137 6 19 17 87 20 120 2 14 4 25 5 25 2 0 5 22 14 85 3 25 7 54 9 65 10 47 19
102 23 130 2 17 7 44 10 60 4 17 8 41 9 55 2 35 15 54 27 42 7 -7 19 -7 34 -2z"/>
</g>
</svg>
